# xmcd
#
# Track frame offsets: 
#        150
#        22073
#        36559
#        59886
#        91853
#        107623
#        129148
#        146626
#        165824
#
# Disc length: 2451 seconds
#
# Revision: 0
# Processed by: cddbd v1.5.2PL0 Copyright (c) Steve Scherf et al.
# Submitted via: ExactAudioCopy v0.99pb4
#
DISCID=75099109
DTITLE=Sun - Wanna Make Love
DYEAR=1976
DGENRE=Funk
TTITLE0=Live On, Dream On
TTITLE1=Tell The People
TTITLE2=My Woman
TTITLE3=They're Calling For More
TTITLE4=Wanna Make Love
TTITLE5=Love Is Never Sure
TTITLE6=The Show Is Over
TTITLE7=It's Killing Me
TTITLE8=Give Your Love To Me
EXTD=
EXTT0=
EXTT1=
EXTT2=
EXTT3=
EXTT4=
EXTT5=
EXTT6=
EXTT7=
EXTT8=
PLAYORDER=
